<?xml version="1.0" encoding="UTF-8" standalone="no"?>
<!-- Created with Inkscape (http://www.inkscape.org/) -->

<svg
   xmlns:ns0="http://www.iki.fi/pav/software/textext/"
   xmlns:dc="http://purl.org/dc/elements/1.1/"
   xmlns:cc="http://creativecommons.org/ns#"
   xmlns:rdf="http://www.w3.org/1999/02/22-rdf-syntax-ns#"
   xmlns:svg="http://www.w3.org/2000/svg"
   xmlns="http://www.w3.org/2000/svg"
   xmlns:xlink="http://www.w3.org/1999/xlink"
   xmlns:sodipodi="http://sodipodi.sourceforge.net/DTD/sodipodi-0.dtd"
   xmlns:inkscape="http://www.inkscape.org/namespaces/inkscape"
   width="435.88333"
   height="290.49289"
   id="svg2"
   version="1.1"
   inkscape:version="0.48.4 r9939"
   sodipodi:docname="mass_spring_damper.svg">
  <sodipodi:namedview
     id="base"
     pagecolor="#ffffff"
     bordercolor="#666666"
     borderopacity="1.0"
     inkscape:pageopacity="0.0"
     inkscape:pageshadow="2"
     inkscape:zoom="2.7323825"
     inkscape:cx="217.94167"
     inkscape:cy="145.24644"
     inkscape:document-units="px"
     inkscape:current-layer="layer1"
     showgrid="false"
     inkscape:window-width="1680"
     inkscape:window-height="1026"
     inkscape:window-x="1680"
     inkscape:window-y="24"
     inkscape:window-maximized="1"
     showguides="true"
     inkscape:guide-bbox="true"
     fit-margin-top="0"
     fit-margin-left="0"
     fit-margin-right="0"
     fit-margin-bottom="0" />
  <defs
     id="defs4">
    <marker
       style="overflow:visible"
       id="Arrow1Send"
       refX="0"
       refY="0"
       orient="auto"
       inkscape:stockid="Arrow1Send">
      <path
         transform="matrix(-0.2,0,0,-0.2,-1.2,0)"
         style="fill-rule:evenodd;stroke:#000000;stroke-width:1pt"
         d="M 0,0 5,-5 -12.5,0 5,5 0,0 z"
         id="path4862"
         inkscape:connector-curvature="0" />
    </marker>
    <marker
       style="overflow:visible"
       id="Arrow1Mend"
       refX="0"
       refY="0"
       orient="auto"
       inkscape:stockid="Arrow1Mend">
      <path
         transform="matrix(-0.4,0,0,-0.4,-4,0)"
         style="fill-rule:evenodd;stroke:#000000;stroke-width:1pt"
         d="M 0,0 5,-5 -12.5,0 5,5 0,0 z"
         id="path4821"
         inkscape:connector-curvature="0" />
    </marker>
    <marker
       style="overflow:visible"
       id="Arrow1Lend"
       refX="0"
       refY="0"
       orient="auto"
       inkscape:stockid="Arrow1Lend">
      <path
         transform="matrix(-0.8,0,0,-0.8,-10,0)"
         style="fill-rule:evenodd;stroke:#000000;stroke-width:1pt"
         d="M 0,0 5,-5 -12.5,0 5,5 0,0 z"
         id="path4815"
         inkscape:connector-curvature="0" />
    </marker>
    <marker
       style="overflow:visible"
       id="Arrow1Lend-5"
       refX="0"
       refY="0"
       orient="auto"
       inkscape:stockid="Arrow1Lend">
      <path
         transform="matrix(-0.8,0,0,-0.8,-10,0)"
         style="fill-rule:evenodd;stroke:#000000;stroke-width:1pt"
         d="M 0,0 5,-5 -12.5,0 5,5 0,0 z"
         id="path4815-3"
         inkscape:connector-curvature="0" />
    </marker>
  </defs>
  <metadata
     id="metadata7">
    <rdf:RDF>
      <cc:Work
         rdf:about="">
        <dc:format>image/svg+xml</dc:format>
        <dc:type
           rdf:resource="http://purl.org/dc/dcmitype/StillImage" />
        <dc:title />
      </cc:Work>
    </rdf:RDF>
  </metadata>
  <g
     inkscape:label="Layer 1"
     inkscape:groupmode="layer"
     id="layer1"
     transform="translate(-44.73121,-710.92552)">
    <g
       id="g4309"
       ns0:preamble=""
       ns0:text="$m$"
       transform="matrix(2,0,0,2,-175.3749,527.51819)">
      <defs
         id="defs4311">
        <g
           id="g4313">
          <symbol
             id="textext-08e211e0-0"
             overflow="visible"
             style="overflow:visible">
            <path
               id="path4316"
               d=""
               style="stroke:none"
               inkscape:connector-curvature="0" />
          </symbol>
          <symbol
             id="textext-08e211e0-1"
             overflow="visible"
             style="overflow:visible">
            <path
               id="path4319"
               d="m 0.875,-0.59375 c -0.03125,0.15625 -0.09375,0.390625 -0.09375,0.4375 0,0.171875 0.140625,0.265625 0.296875,0.265625 0.125,0 0.296875,-0.078125 0.375,-0.28125 0,-0.015625 0.125,-0.484375 0.1875,-0.734375 l 0.21875,-0.890625 C 1.90625,-2.03125 1.96875,-2.25 2.03125,-2.46875 c 0.03125,-0.171875 0.109375,-0.46875 0.125,-0.5 0.140625,-0.3125 0.671875,-1.21875 1.625,-1.21875 0.453125,0 0.53125,0.375 0.53125,0.703125 0,0.25 -0.0625,0.53125 -0.140625,0.828125 L 3.890625,-1.5 3.6875,-0.75 c -0.03125,0.203125 -0.125,0.546875 -0.125,0.59375 0,0.171875 0.140625,0.265625 0.28125,0.265625 0.3125,0 0.375,-0.25 0.453125,-0.5625 0.140625,-0.5625 0.515625,-2.015625 0.59375,-2.40625 0.03125,-0.125 0.5625,-1.328125 1.65625,-1.328125 0.421875,0 0.53125,0.34375 0.53125,0.703125 0,0.5625 -0.421875,1.703125 -0.625,2.234375 -0.078125,0.234375 -0.125,0.34375 -0.125,0.546875 0,0.46875 0.34375,0.8125 0.8125,0.8125 0.9375,0 1.3125,-1.453125 1.3125,-1.53125 0,-0.109375 -0.09375,-0.109375 -0.125,-0.109375 -0.09375,0 -0.09375,0.03125 -0.140625,0.1875 -0.15625,0.53125 -0.46875,1.234375 -1.015625,1.234375 -0.171875,0 -0.25,-0.09375 -0.25,-0.328125 0,-0.25 0.09375,-0.484375 0.1875,-0.703125 0.1875,-0.53125 0.609375,-1.625 0.609375,-2.203125 0,-0.640625 -0.40625,-1.0625 -1.15625,-1.0625 -0.734375,0 -1.25,0.4375 -1.625,0.96875 0,-0.125 -0.03125,-0.46875 -0.3125,-0.703125 -0.25,-0.21875 -0.5625,-0.265625 -0.8125,-0.265625 -0.90625,0 -1.390625,0.640625 -1.5625,0.875 -0.046875,-0.578125 -0.46875,-0.875 -0.921875,-0.875 -0.453125,0 -0.640625,0.390625 -0.734375,0.5625 -0.171875,0.359375 -0.296875,0.9375 -0.296875,0.96875 0,0.109375 0.09375,0.109375 0.109375,0.109375 0.109375,0 0.109375,-0.015625 0.171875,-0.234375 0.171875,-0.703125 0.375,-1.1875 0.734375,-1.1875 0.15625,0 0.296875,0.078125 0.296875,0.453125 0,0.21875 -0.03125,0.328125 -0.15625,0.84375 z"
               style="stroke:none"
               inkscape:connector-curvature="0" />
          </symbol>
        </g>
      </defs>
      <g
         id="textext-08e211e0-2">
        <g
           id="g4322"
           style="fill:#000000;fill-opacity:1">
          <use
             id="use4324"
             y="134.765"
             x="223.43201"
             xlink:href="#textext-08e211e0-1"
             width="400"
             height="400" />
        </g>
      </g>
    </g>
    <g
       transform="matrix(2,0,0,2,-304.1897,674.46192)"
       ns0:text="$c$"
       ns0:preamble=""
       id="g4422">
      <defs
         id="defs4424">
        <g
           id="g4426">
          <symbol
             style="overflow:visible"
             overflow="visible"
             id="textext-2f24d870-0">
            <path
               inkscape:connector-curvature="0"
               style="stroke:none"
               d=""
               id="path4429" />
          </symbol>
          <symbol
             style="overflow:visible"
             overflow="visible"
             id="textext-2f24d870-1">
            <path
               inkscape:connector-curvature="0"
               style="stroke:none"
               d="m 3.953125,-3.78125 c -0.171875,0 -0.296875,0 -0.4375,0.125 -0.171875,0.15625 -0.1875,0.328125 -0.1875,0.390625 0,0.25 0.1875,0.359375 0.375,0.359375 0.28125,0 0.546875,-0.25 0.546875,-0.640625 0,-0.484375 -0.46875,-0.859375 -1.171875,-0.859375 -1.34375,0 -2.671875,1.421875 -2.671875,2.828125 0,0.90625 0.578125,1.6875 1.625,1.6875 1.421875,0 2.25,-1.0625 2.25,-1.171875 0,-0.0625 -0.046875,-0.140625 -0.109375,-0.140625 -0.0625,0 -0.078125,0.03125 -0.140625,0.109375 -0.78125,0.984375 -1.875,0.984375 -1.984375,0.984375 -0.625,0 -0.90625,-0.484375 -0.90625,-1.09375 0,-0.40625 0.203125,-1.375 0.546875,-1.984375 0.3125,-0.578125 0.859375,-1 1.40625,-1 0.328125,0 0.71875,0.125 0.859375,0.40625 z"
               id="path4432" />
          </symbol>
        </g>
      </defs>
      <g
         id="textext-2f24d870-2">
        <g
           style="fill:#000000;fill-opacity:1"
           id="g4435">
          <use
             height="400"
             width="400"
             xlink:href="#textext-2f24d870-1"
             x="223.43201"
             y="134.765"
             id="use4437" />
        </g>
      </g>
    </g>
    <g
       id="g4555"
       ns0:preamble=""
       ns0:text="$k$"
       transform="matrix(2,0,0,2,-300.05385,486.92115)">
      <defs
         id="defs4557">
        <g
           id="g4559">
          <symbol
             style="overflow:visible"
             id="textext-98de1750-0"
             overflow="visible">
            <path
               inkscape:connector-curvature="0"
               id="path4562"
               d=""
               style="stroke:none" />
          </symbol>
          <symbol
             style="overflow:visible"
             id="textext-98de1750-1"
             overflow="visible">
            <path
               inkscape:connector-curvature="0"
               id="path4565"
               d="m 2.859375,-6.8125 c 0,0 0,-0.109375 -0.125,-0.109375 -0.234375,0 -0.953125,0.078125 -1.21875,0.109375 -0.078125,0 -0.1875,0.015625 -0.1875,0.1875 0,0.125 0.09375,0.125 0.234375,0.125 0.484375,0 0.5,0.0625 0.5,0.171875 L 2.03125,-6.125 0.59375,-0.390625 c -0.046875,0.140625 -0.046875,0.15625 -0.046875,0.21875 0,0.234375 0.203125,0.28125 0.296875,0.28125 0.125,0 0.265625,-0.09375 0.328125,-0.203125 0.046875,-0.09375 0.5,-1.9375 0.5625,-2.1875 0.34375,0.03125 1.15625,0.1875 1.15625,0.84375 0,0.078125 0,0.109375 -0.03125,0.21875 -0.015625,0.109375 -0.03125,0.234375 -0.03125,0.34375 0,0.578125 0.390625,0.984375 0.90625,0.984375 0.296875,0 0.578125,-0.15625 0.796875,-0.53125 0.25,-0.4375 0.359375,-0.984375 0.359375,-1 0,-0.109375 -0.09375,-0.109375 -0.125,-0.109375 -0.09375,0 -0.109375,0.046875 -0.140625,0.1875 -0.203125,0.71875 -0.421875,1.234375 -0.859375,1.234375 -0.203125,0 -0.328125,-0.109375 -0.328125,-0.46875 0,-0.171875 0.046875,-0.40625 0.078125,-0.5625 C 3.5625,-1.3125 3.5625,-1.34375 3.5625,-1.453125 3.5625,-2.09375 2.9375,-2.375 2.078125,-2.5 2.390625,-2.671875 2.71875,-2.984375 2.9375,-3.234375 3.421875,-3.765625 3.875,-4.1875 4.359375,-4.1875 c 0.0625,0 0.078125,0 0.09375,0.015625 0.125,0.015625 0.125,0.015625 0.21875,0.078125 0.015625,0 0.015625,0.015625 0.03125,0.03125 -0.46875,0.03125 -0.5625,0.421875 -0.5625,0.546875 0,0.15625 0.109375,0.34375 0.375,0.34375 0.265625,0 0.546875,-0.21875 0.546875,-0.609375 0,-0.296875 -0.234375,-0.625 -0.671875,-0.625 -0.28125,0 -0.734375,0.078125 -1.453125,0.875 -0.34375,0.375 -0.734375,0.78125 -1.109375,0.921875 z"
               style="stroke:none" />
          </symbol>
        </g>
      </defs>
      <g
         id="textext-98de1750-2">
        <g
           id="g4568"
           style="fill:#000000;fill-opacity:1">
          <use
             height="400"
             width="400"
             id="use4570"
             y="134.765"
             x="223.43201"
             xlink:href="#textext-98de1750-1" />
        </g>
      </g>
    </g>
    <path
       sodipodi:type="arc"
       style="fill:#000000;stroke:#ffffff;stroke-width:3;stroke-linecap:round;stroke-linejoin:round;stroke-miterlimit:4;stroke-opacity:1;stroke-dasharray:none;stroke-dashoffset:0"
       id="path2985"
       sodipodi:cx="258.89972"
       sodipodi:cy="434.91428"
       sodipodi:rx="16.763292"
       sodipodi:ry="34.457878"
       d="m 275.66301,434.91428 c 0,19.03056 -7.50518,34.45787 -16.76329,34.45787 -9.25811,0 -16.76329,-15.42731 -16.76329,-34.45787 0,-19.03056 7.50518,-34.45788 16.76329,-34.45788 9.25811,0 16.76329,15.42732 16.76329,34.45788 z"
       transform="matrix(0,-2.2459897,1.0926436,0,-170.95716,1423.2612)" />
    <path
       style="fill:none;stroke:#000000;stroke-width:4;stroke-linecap:butt;stroke-linejoin:miter;stroke-miterlimit:4;stroke-opacity:1;stroke-dasharray:none"
       d="m 56.55864,973.45649 0,-260.53097"
       id="path2987"
       inkscape:connector-curvature="0" />
    <path
       style="fill:none;stroke:#000000;stroke-width:3;stroke-linecap:butt;stroke-linejoin:miter;stroke-miterlimit:4;stroke-opacity:1;stroke-dasharray:none"
       d="m 298.92548,842.6045 -55.92921,0"
       id="path2989"
       inkscape:connector-curvature="0" />
    <path
       style="fill:none;stroke:#000000;stroke-width:3;stroke-linecap:butt;stroke-linejoin:miter;stroke-miterlimit:4;stroke-opacity:1;stroke-dasharray:none"
       d="m 152.84183,892.74853 89.9115,0 0,-95.57522 -30.07807,0"
       id="path2991"
       inkscape:connector-curvature="0"
       sodipodi:nodetypes="cccc" />
    <path
       style="fill:none;stroke:#000000;stroke-width:3;stroke-linecap:butt;stroke-linejoin:miter;stroke-miterlimit:4;stroke-opacity:1;stroke-dasharray:none"
       d="m 186.05687,919.27205 -73.62832,0 0,-53.09735 72.97678,0"
       id="path2993"
       inkscape:connector-curvature="0"
       sodipodi:nodetypes="cccc" />
    <path
       style="fill:none;stroke:#000000;stroke-width:3;stroke-linecap:butt;stroke-linejoin:miter;stroke-miterlimit:4;stroke-opacity:1;stroke-dasharray:none"
       d="m 56.85189,892.56937 55.00778,0"
       id="path2995"
       inkscape:connector-curvature="0"
       sodipodi:nodetypes="cc" />
    <path
       style="fill:none;stroke:#000000;stroke-width:3;stroke-linecap:butt;stroke-linejoin:miter;stroke-miterlimit:4;stroke-opacity:1;stroke-dasharray:none"
       d="m 206.49009,821.91648 -13.597,-50.74471"
       id="path2999"
       inkscape:connector-curvature="0" />
    <path
       style="fill:none;stroke:#000000;stroke-width:3;stroke-linecap:butt;stroke-linejoin:miter;stroke-miterlimit:4;stroke-opacity:1;stroke-dasharray:none"
       d="m 192.88645,771.18256 -13.597,50.74471"
       id="path2999-1"
       inkscape:connector-curvature="0" />
    <path
       style="fill:none;stroke:#000000;stroke-width:3;stroke-linecap:butt;stroke-linejoin:miter;stroke-miterlimit:4;stroke-opacity:1;stroke-dasharray:none"
       d="m 179.10909,821.74482 -13.597,-50.74471"
       id="path2999-3"
       inkscape:connector-curvature="0" />
    <path
       style="fill:none;stroke:#000000;stroke-width:3;stroke-linecap:butt;stroke-linejoin:miter;stroke-miterlimit:4;stroke-opacity:1;stroke-dasharray:none"
       d="m 165.50545,771.0109 -13.597,50.74471"
       id="path2999-1-3"
       inkscape:connector-curvature="0" />
    <path
       style="fill:none;stroke:#000000;stroke-width:3;stroke-linecap:butt;stroke-linejoin:miter;stroke-miterlimit:4;stroke-opacity:1;stroke-dasharray:none"
       d="m 152.07632,821.2442 -13.597,-50.74471"
       id="path2999-3-2"
       inkscape:connector-curvature="0" />
    <path
       style="fill:none;stroke:#000000;stroke-width:3;stroke-linecap:butt;stroke-linejoin:miter;stroke-miterlimit:4;stroke-opacity:1;stroke-dasharray:none"
       d="m 138.47268,770.51028 -13.597,50.74471"
       id="path2999-1-3-5"
       inkscape:connector-curvature="0" />
    <path
       style="fill:none;stroke:#000000;stroke-width:3;stroke-linecap:butt;stroke-linejoin:miter;stroke-miterlimit:4;stroke-opacity:1;stroke-dasharray:none"
       d="m 124.79326,820.7436 -13.597,-50.74471"
       id="path2999-3-8"
       inkscape:connector-curvature="0" />
    <path
       style="fill:none;stroke:#000000;stroke-width:3;stroke-linecap:butt;stroke-linejoin:miter;stroke-miterlimit:4;stroke-opacity:1;stroke-dasharray:none"
       d="m 111.18962,770.00968 -13.597,50.74471"
       id="path2999-1-3-1"
       inkscape:connector-curvature="0" />
    <path
       style="fill:none;stroke:#000000;stroke-width:3;stroke-linecap:butt;stroke-linejoin:miter;stroke-miterlimit:4;stroke-opacity:1;stroke-dasharray:none"
       d="m 57.127443,794.50059 33.290336,0"
       id="path3070"
       inkscape:connector-curvature="0"
       sodipodi:nodetypes="cc" />
    <path
       style="fill:none;stroke:#000000;stroke-width:3;stroke-linecap:butt;stroke-linejoin:miter;stroke-miterlimit:4;stroke-opacity:1;stroke-dasharray:none"
       d="m 152.27667,914.39586 0,-42.55156"
       id="path3072"
       inkscape:connector-curvature="0"
       sodipodi:nodetypes="cc" />
    <path
       style="fill:none;stroke:#000000;stroke-width:3;stroke-linecap:butt;stroke-linejoin:miter;stroke-miterlimit:4;stroke-opacity:1;stroke-dasharray:none"
       d="m 212.79262,797.27443 -6.52473,24.35063"
       id="path2999-1-7"
       inkscape:connector-curvature="0"
       sodipodi:nodetypes="cc" />
    <path
       style="fill:none;stroke:#000000;stroke-width:3;stroke-linecap:butt;stroke-linejoin:miter;stroke-miterlimit:4;stroke-opacity:1;stroke-dasharray:none"
       d="M 97.21628,820.62385 90.19664,794.42619"
       id="path2999-3-8-9"
       inkscape:connector-curvature="0"
       sodipodi:nodetypes="cc" />
    <path
       style="fill:none;stroke:#000000;stroke-width:1px;stroke-linecap:butt;stroke-linejoin:miter;stroke-opacity:1"
       d="m 45.23121,945.13791 11.19106,19.38348"
       id="path3897"
       inkscape:connector-curvature="0"
       inkscape:tile-cx="84.467552"
       inkscape:tile-cy="48.78137"
       inkscape:tile-w="19.38348"
       inkscape:tile-h="11.19106"
       inkscape:tile-x0="74.775812"
       inkscape:tile-y0="43.18584" />
    <use
       height="400"
       width="400"
       x="0"
       y="0"
       inkscape:tiled-clone-of="#path3897"
       xlink:href="#path3897"
       id="use3919" />
    <use
       height="400"
       width="400"
       x="0"
       y="0"
       inkscape:tiled-clone-of="#path3897"
       xlink:href="#path3897"
       id="use3935"
       inkscape:tile-cx="84.467552"
       inkscape:tile-cy="48.78137"
       inkscape:tile-w="19.38348"
       inkscape:tile-h="11.19106"
       inkscape:tile-x0="74.775812"
       inkscape:tile-y0="43.18584" />
    <use
       height="400"
       width="400"
       x="0"
       y="0"
       inkscape:tiled-clone-of="#use3935"
       xlink:href="#use3935"
       id="use4121" />
    <use
       height="400"
       width="400"
       x="0"
       y="0"
       inkscape:tiled-clone-of="#use3935"
       xlink:href="#use3935"
       transform="translate(0,-19.38348)"
       id="use4123" />
    <use
       height="400"
       width="400"
       x="0"
       y="0"
       inkscape:tiled-clone-of="#use3935"
       xlink:href="#use3935"
       transform="translate(0,-38.76696)"
       id="use4125" />
    <use
       height="400"
       width="400"
       x="0"
       y="0"
       inkscape:tiled-clone-of="#use3935"
       xlink:href="#use3935"
       transform="translate(0,-58.15044)"
       id="use4127" />
    <use
       height="400"
       width="400"
       x="0"
       y="0"
       inkscape:tiled-clone-of="#use3935"
       xlink:href="#use3935"
       transform="translate(0,-77.53392)"
       id="use4129" />
    <use
       height="400"
       width="400"
       x="0"
       y="0"
       inkscape:tiled-clone-of="#use3935"
       xlink:href="#use3935"
       transform="translate(0,-96.9174)"
       id="use4131" />
    <use
       height="400"
       width="400"
       x="0"
       y="0"
       inkscape:tiled-clone-of="#use3935"
       xlink:href="#use3935"
       transform="translate(0,-116.30088)"
       id="use4133" />
    <use
       height="400"
       width="400"
       x="0"
       y="0"
       inkscape:tiled-clone-of="#use3935"
       xlink:href="#use3935"
       transform="translate(0,-135.68436)"
       id="use4135" />
    <use
       height="400"
       width="400"
       x="0"
       y="0"
       inkscape:tiled-clone-of="#use3935"
       xlink:href="#use3935"
       transform="translate(0,-155.06784)"
       id="use4137" />
    <use
       height="400"
       width="400"
       x="0"
       y="0"
       inkscape:tiled-clone-of="#use3935"
       xlink:href="#use3935"
       transform="translate(0,-174.45132)"
       id="use4139" />
    <use
       height="400"
       width="400"
       x="0"
       y="0"
       inkscape:tiled-clone-of="#use3935"
       xlink:href="#use3935"
       transform="translate(0,-193.8348)"
       id="use4141" />
    <use
       height="400"
       width="400"
       x="0"
       y="0"
       inkscape:tiled-clone-of="#use3935"
       xlink:href="#use3935"
       transform="translate(0,-213.21828)"
       id="use4143" />
    <use
       height="400"
       width="400"
       x="0"
       y="0"
       inkscape:tiled-clone-of="#use3935"
       xlink:href="#use3935"
       transform="translate(0,-232.60176)"
       id="use4145" />
    <path
       sodipodi:nodetypes="cc"
       inkscape:connector-curvature="0"
       id="path4802"
       d="m 304.62935,956.01635 49.37084,0"
       style="fill:none;stroke:#000000;stroke-width:1px;stroke-linecap:butt;stroke-linejoin:miter;stroke-opacity:1;marker-end:url(#Arrow1Lend)" />
    <path
       sodipodi:nodetypes="cc"
       inkscape:connector-curvature="0"
       id="path4804"
       d="m 303.62254,884.63276 0,84.40624"
       style="fill:none;stroke:#000000;stroke-width:1px;stroke-linecap:butt;stroke-linejoin:miter;stroke-opacity:1" />
    <g
       transform="matrix(2,0,0,2,-122.60404,667.46579)"
       ns0:text="$x$, $\\dot{x}$, $\\ddot{x}$"
       ns0:preamble=""
       ns0:page_width=""
       style="stroke-width:0.0000001"
       id="g3236">
      <defs
         id="defs3238">
        <g
           id="g3240">
          <symbol
             style="overflow:visible"
             overflow="visible"
             id="textext-55ee1293-0">
            <path
               inkscape:connector-curvature="0"
               style="stroke:none"
               d=""
               id="path3243" />
          </symbol>
          <symbol
             style="overflow:visible"
             overflow="visible"
             id="textext-55ee1293-1">
            <path
               inkscape:connector-curvature="0"
               style="stroke:none"
               d="M 3.328125,-3.015625 C 3.390625,-3.265625 3.625,-4.1875 4.3125,-4.1875 c 0.046875,0 0.296875,0 0.5,0.125 C 4.53125,-4 4.34375,-3.765625 4.34375,-3.515625 c 0,0.15625 0.109375,0.34375 0.375,0.34375 0.21875,0 0.53125,-0.171875 0.53125,-0.578125 0,-0.515625 -0.578125,-0.65625 -0.921875,-0.65625 -0.578125,0 -0.921875,0.53125 -1.046875,0.75 -0.25,-0.65625 -0.78125,-0.75 -1.078125,-0.75 -1.03125,0 -1.609375,1.28125 -1.609375,1.53125 0,0.109375 0.109375,0.109375 0.125,0.109375 0.078125,0 0.109375,-0.03125 0.125,-0.109375 0.34375,-1.0625 1,-1.3125 1.34375,-1.3125 0.1875,0 0.53125,0.09375 0.53125,0.671875 0,0.3125 -0.171875,0.96875 -0.53125,2.375 -0.15625,0.609375 -0.515625,1.03125 -0.953125,1.03125 -0.0625,0 -0.28125,0 -0.5,-0.125 0.25,-0.0625 0.46875,-0.265625 0.46875,-0.546875 0,-0.265625 -0.21875,-0.34375 -0.359375,-0.34375 -0.3125,0 -0.546875,0.25 -0.546875,0.578125 0,0.453125 0.484375,0.65625 0.921875,0.65625 0.671875,0 1.03125,-0.703125 1.046875,-0.75 0.125,0.359375 0.484375,0.75 1.078125,0.75 1.03125,0 1.59375,-1.28125 1.59375,-1.53125 0,-0.109375 -0.078125,-0.109375 -0.109375,-0.109375 -0.09375,0 -0.109375,0.046875 -0.140625,0.109375 -0.328125,1.078125 -1,1.3125 -1.3125,1.3125 -0.390625,0 -0.546875,-0.3125 -0.546875,-0.65625 0,-0.21875 0.046875,-0.4375 0.15625,-0.875 z m 0,0"
               id="path3246" />
          </symbol>
          <symbol
             style="overflow:visible"
             overflow="visible"
             id="textext-55ee1293-2">
            <path
               inkscape:connector-curvature="0"
               style="stroke:none"
               d=""
               id="path3249" />
          </symbol>
          <symbol
             style="overflow:visible"
             overflow="visible"
             id="textext-55ee1293-3">
            <path
               inkscape:connector-curvature="0"
               style="stroke:none"
               d="m 2.03125,-0.015625 c 0,-0.625 -0.25,-1.046875 -0.640625,-1.046875 -0.359375,0 -0.53125,0.28125 -0.53125,0.53125 0,0.265625 0.171875,0.53125 0.53125,0.53125 0.15625,0 0.28125,-0.0625 0.375,-0.140625 L 1.78125,-0.15625 c 0.015625,0 0.015625,0 0.015625,0.140625 0,0.640625 -0.265625,1.25 -0.703125,1.71875 -0.0625,0.0625 -0.078125,0.078125 -0.078125,0.109375 0,0.078125 0.046875,0.109375 0.09375,0.109375 0.125,0 0.921875,-0.78125 0.921875,-1.9375 z m 0,0"
               id="path3252" />
          </symbol>
          <symbol
             style="overflow:visible"
             overflow="visible"
             id="textext-55ee1293-4">
            <path
               inkscape:connector-curvature="0"
               style="stroke:none"
               d="m 1.90625,-6.140625 c 0,-0.265625 -0.21875,-0.53125 -0.515625,-0.53125 -0.34375,0 -0.546875,0.28125 -0.546875,0.53125 0,0.265625 0.234375,0.53125 0.53125,0.53125 0.34375,0 0.53125,-0.28125 0.53125,-0.53125 z m 0,0"
               id="path3255" />
          </symbol>
          <symbol
             style="overflow:visible"
             overflow="visible"
             id="textext-55ee1293-5">
            <path
               inkscape:connector-curvature="0"
               style="stroke:none"
               d="m 2.03125,-6.171875 c 0,-0.234375 -0.203125,-0.5 -0.5,-0.5 -0.28125,0 -0.5,0.21875 -0.5,0.5 0,0.28125 0.21875,0.5 0.5,0.5 0.296875,0 0.5,-0.265625 0.5,-0.5 z m 1.921875,0 c 0,-0.28125 -0.21875,-0.5 -0.5,-0.5 -0.296875,0 -0.5,0.265625 -0.5,0.5 0,0.234375 0.203125,0.5 0.5,0.5 0.28125,0 0.5,-0.21875 0.5,-0.5 z m 0,0"
               id="path3258" />
          </symbol>
        </g>
      </defs>
      <g
         id="textext-55ee1293-6">
        <g
           style="fill:#000000;fill-opacity:1"
           id="g3261">
          <use
             height="400"
             width="400"
             xlink:href="#textext-55ee1293-1"
             x="223.43201"
             y="134.765"
             id="use3263" />
        </g>
        <g
           style="fill:#000000;fill-opacity:1"
           id="g3265">
          <use
             height="400"
             width="400"
             xlink:href="#textext-55ee1293-3"
             x="229.12601"
             y="134.765"
             id="use3267" />
        </g>
        <g
           style="fill:#000000;fill-opacity:1"
           id="g3269">
          <use
             height="400"
             width="400"
             xlink:href="#textext-55ee1293-4"
             x="236.95461"
             y="134.765"
             id="use3271" />
        </g>
        <g
           style="fill:#000000;fill-opacity:1"
           id="g3273">
          <use
             height="400"
             width="400"
             xlink:href="#textext-55ee1293-1"
             x="235.214"
             y="134.765"
             id="use3275" />
        </g>
        <g
           style="fill:#000000;fill-opacity:1"
           id="g3277">
          <use
             height="400"
             width="400"
             xlink:href="#textext-55ee1293-3"
             x="240.908"
             y="134.765"
             id="use3279" />
        </g>
        <g
           style="fill:#000000;fill-opacity:1"
           id="g3281">
          <use
             height="400"
             width="400"
             xlink:href="#textext-55ee1293-5"
             x="247.63077"
             y="134.765"
             id="use3283" />
        </g>
        <g
           style="fill:#000000;fill-opacity:1"
           id="g3285">
          <use
             height="400"
             width="400"
             xlink:href="#textext-55ee1293-1"
             x="246.996"
             y="134.765"
             id="use3287" />
        </g>
      </g>
    </g>
    <g
       transform="matrix(2,0,0,2,-167.23961,718.64157)"
       ns0:text="$x=0$"
       ns0:preamble=""
       ns0:page_width=""
       style="stroke-width:0.0000001"
       id="g3876">
      <defs
         id="defs3878">
        <g
           id="g3880">
          <symbol
             style="overflow:visible"
             overflow="visible"
             id="textext-6d5b17f3-0">
            <path
               inkscape:connector-curvature="0"
               style="stroke:none"
               d=""
               id="path3883" />
          </symbol>
          <symbol
             style="overflow:visible"
             overflow="visible"
             id="textext-6d5b17f3-1">
            <path
               inkscape:connector-curvature="0"
               style="stroke:none"
               d="M 3.328125,-3.015625 C 3.390625,-3.265625 3.625,-4.1875 4.3125,-4.1875 c 0.046875,0 0.296875,0 0.5,0.125 C 4.53125,-4 4.34375,-3.765625 4.34375,-3.515625 c 0,0.15625 0.109375,0.34375 0.375,0.34375 0.21875,0 0.53125,-0.171875 0.53125,-0.578125 0,-0.515625 -0.578125,-0.65625 -0.921875,-0.65625 -0.578125,0 -0.921875,0.53125 -1.046875,0.75 -0.25,-0.65625 -0.78125,-0.75 -1.078125,-0.75 -1.03125,0 -1.609375,1.28125 -1.609375,1.53125 0,0.109375 0.109375,0.109375 0.125,0.109375 0.078125,0 0.109375,-0.03125 0.125,-0.109375 0.34375,-1.0625 1,-1.3125 1.34375,-1.3125 0.1875,0 0.53125,0.09375 0.53125,0.671875 0,0.3125 -0.171875,0.96875 -0.53125,2.375 -0.15625,0.609375 -0.515625,1.03125 -0.953125,1.03125 -0.0625,0 -0.28125,0 -0.5,-0.125 0.25,-0.0625 0.46875,-0.265625 0.46875,-0.546875 0,-0.265625 -0.21875,-0.34375 -0.359375,-0.34375 -0.3125,0 -0.546875,0.25 -0.546875,0.578125 0,0.453125 0.484375,0.65625 0.921875,0.65625 0.671875,0 1.03125,-0.703125 1.046875,-0.75 0.125,0.359375 0.484375,0.75 1.078125,0.75 1.03125,0 1.59375,-1.28125 1.59375,-1.53125 0,-0.109375 -0.078125,-0.109375 -0.109375,-0.109375 -0.09375,0 -0.109375,0.046875 -0.140625,0.109375 -0.328125,1.078125 -1,1.3125 -1.3125,1.3125 -0.390625,0 -0.546875,-0.3125 -0.546875,-0.65625 0,-0.21875 0.046875,-0.4375 0.15625,-0.875 z m 0,0"
               id="path3886" />
          </symbol>
          <symbol
             style="overflow:visible"
             overflow="visible"
             id="textext-6d5b17f3-2">
            <path
               inkscape:connector-curvature="0"
               style="stroke:none"
               d=""
               id="path3889" />
          </symbol>
          <symbol
             style="overflow:visible"
             overflow="visible"
             id="textext-6d5b17f3-3">
            <path
               inkscape:connector-curvature="0"
               style="stroke:none"
               d="m 6.84375,-3.265625 c 0.15625,0 0.34375,0 0.34375,-0.1875 C 7.1875,-3.65625 7,-3.65625 6.859375,-3.65625 l -5.96875,0 c -0.140625,0 -0.328125,0 -0.328125,0.203125 0,0.1875 0.1875,0.1875 0.328125,0.1875 z m 0.015625,1.9375 c 0.140625,0 0.328125,0 0.328125,-0.203125 0,-0.1875 -0.1875,-0.1875 -0.34375,-0.1875 l -5.953125,0 c -0.140625,0 -0.328125,0 -0.328125,0.1875 0,0.203125 0.1875,0.203125 0.328125,0.203125 z m 0,0"
               id="path3892" />
          </symbol>
          <symbol
             style="overflow:visible"
             overflow="visible"
             id="textext-6d5b17f3-4">
            <path
               inkscape:connector-curvature="0"
               style="stroke:none"
               d="m 4.578125,-3.1875 c 0,-0.796875 -0.046875,-1.59375 -0.390625,-2.328125 -0.453125,-0.96875 -1.28125,-1.125 -1.6875,-1.125 -0.609375,0 -1.328125,0.265625 -1.75,1.1875 -0.3125,0.6875 -0.359375,1.46875 -0.359375,2.265625 0,0.75 0.03125,1.640625 0.453125,2.40625 0.421875,0.796875 1.15625,1 1.640625,1 0.53125,0 1.296875,-0.203125 1.734375,-1.15625 0.3125,-0.6875 0.359375,-1.46875 0.359375,-2.25 z M 2.484375,0 C 2.09375,0 1.5,-0.25 1.328125,-1.203125 1.21875,-1.796875 1.21875,-2.71875 1.21875,-3.3125 c 0,-0.640625 0,-1.296875 0.078125,-1.828125 0.1875,-1.1875 0.9375,-1.28125 1.1875,-1.28125 0.328125,0 0.984375,0.1875 1.171875,1.171875 0.109375,0.5625 0.109375,1.3125 0.109375,1.9375 0,0.75 0,1.421875 -0.109375,2.0625 C 3.5,-0.296875 2.9375,0 2.484375,0 z m 0,0"
               id="path3895" />
          </symbol>
        </g>
      </defs>
      <g
         id="textext-6d5b17f3-5">
        <g
           style="fill:#000000;fill-opacity:1"
           id="g3898">
          <use
             height="400"
             width="400"
             xlink:href="#textext-6d5b17f3-1"
             x="223.43201"
             y="134.765"
             id="use3900" />
        </g>
        <g
           style="fill:#000000;fill-opacity:1"
           id="g3902">
          <use
             height="400"
             width="400"
             xlink:href="#textext-6d5b17f3-3"
             x="231.89301"
             y="134.765"
             id="use3904" />
        </g>
        <g
           style="fill:#000000;fill-opacity:1"
           id="g3906">
          <use
             height="400"
             width="400"
             xlink:href="#textext-6d5b17f3-4"
             x="242.41151"
             y="134.765"
             id="use3908" />
        </g>
      </g>
    </g>
    <path
       sodipodi:nodetypes="cc"
       inkscape:connector-curvature="0"
       id="path4802-4"
       d="m 338.69078,842.6045 49.37084,0"
       style="fill:none;stroke:#000000;stroke-width:5;stroke-linecap:butt;stroke-linejoin:miter;stroke-miterlimit:4;stroke-opacity:1;stroke-dasharray:none;marker-end:url(#Arrow1Send)" />
    <g
       id="g5468"
       style="stroke-width:0.0000001"
       ns0:page_width=""
       ns0:preamble=""
       ns0:text="$F = F_0 \\sin(\\omega t)$"
       transform="matrix(2,0,0,2,-91.745432,557.18775)">
      <defs
         id="defs5470">
        <g
           id="g5472">
          <symbol
             id="textext-ba0cc7e8-0"
             overflow="visible"
             style="overflow:visible">
            <path
               id="path5475"
               d=""
               style="stroke:none"
               inkscape:connector-curvature="0" />
          </symbol>
          <symbol
             id="textext-ba0cc7e8-1"
             overflow="visible"
             style="overflow:visible">
            <path
               id="path5478"
               d="m 3.015625,-3.234375 0.96875,0 c 0.75,0 0.828125,0.15625 0.828125,0.4375 0,0.078125 0,0.1875 -0.0625,0.5 C 4.71875,-2.25 4.71875,-2.21875 4.71875,-2.1875 c 0,0.078125 0.0625,0.109375 0.109375,0.109375 0.109375,0 0.109375,-0.03125 0.15625,-0.203125 L 5.53125,-4.453125 C 5.5625,-4.5625 5.5625,-4.578125 5.5625,-4.609375 5.5625,-4.625 5.546875,-4.71875 5.4375,-4.71875 5.34375,-4.71875 5.328125,-4.671875 5.296875,-4.5 5.078125,-3.734375 4.859375,-3.546875 4,-3.546875 l -0.90625,0 0.640625,-2.53125 C 3.828125,-6.4375 3.84375,-6.46875 4.28125,-6.46875 l 1.3125,0 c 1.21875,0 1.453125,0.328125 1.453125,1.09375 0,0.234375 0,0.265625 -0.03125,0.546875 C 7,-4.703125 7,-4.6875 7,-4.65625 c 0,0.046875 0.03125,0.125 0.125,0.125 0.109375,0 0.109375,-0.0625 0.125,-0.25 L 7.453125,-6.515625 C 7.484375,-6.78125 7.4375,-6.78125 7.1875,-6.78125 l -4.890625,0 c -0.1875,0 -0.296875,0 -0.296875,0.203125 0,0.109375 0.09375,0.109375 0.28125,0.109375 0.375,0 0.65625,0 0.65625,0.171875 0,0.046875 0,0.0625 -0.0625,0.25 L 1.5625,-0.78125 c -0.09375,0.390625 -0.109375,0.46875 -0.90625,0.46875 -0.171875,0 -0.28125,0 -0.28125,0.1875 C 0.375,0 0.5,0 0.53125,0 0.8125,0 1.5625,-0.03125 1.84375,-0.03125 2.171875,-0.03125 3,0 3.328125,0 3.421875,0 3.53125,0 3.53125,-0.1875 3.53125,-0.265625 3.484375,-0.296875 3.484375,-0.296875 3.453125,-0.3125 3.421875,-0.3125 3.203125,-0.3125 c -0.21875,0 -0.265625,0 -0.515625,-0.015625 -0.296875,-0.03125 -0.328125,-0.078125 -0.328125,-0.203125 0,-0.015625 0,-0.078125 0.046875,-0.21875 z m 0,0"
               style="stroke:none"
               inkscape:connector-curvature="0" />
          </symbol>
          <symbol
             id="textext-ba0cc7e8-2"
             overflow="visible"
             style="overflow:visible">
            <path
               id="path5481"
               d="m 6.03125,-3.703125 c 0,-0.453125 -0.171875,-0.703125 -0.40625,-0.703125 -0.25,0 -0.515625,0.234375 -0.515625,0.46875 0,0.09375 0.046875,0.203125 0.140625,0.296875 0.171875,0.15625 0.359375,0.421875 0.359375,0.84375 0,0.390625 -0.203125,0.96875 -0.5,1.421875 C 4.8125,-0.953125 4.4375,-0.609375 3.96875,-0.609375 3.40625,-0.609375 3.09375,-0.96875 3,-1.5 c 0.109375,-0.265625 0.34375,-0.90625 0.34375,-1.1875 0,-0.109375 -0.046875,-0.21875 -0.1875,-0.21875 -0.078125,0 -0.1875,0.03125 -0.265625,0.171875 C 2.78125,-2.53125 2.65625,-1.890625 2.65625,-1.53125 2.328125,-1.0625 1.9375,-0.609375 1.3125,-0.609375 c -0.671875,0 -0.875,-0.59375 -0.875,-1.140625 0,-1.25 1.015625,-2.296875 1.015625,-2.421875 0,-0.109375 -0.078125,-0.1875 -0.1875,-0.1875 -0.125,0 -0.203125,0.125 -0.265625,0.21875 -0.5,0.734375 -0.875,1.921875 -0.875,2.828125 0,0.6875 0.21875,1.421875 1.046875,1.421875 0.703125,0 1.171875,-0.5 1.53125,-1.046875 0.09375,0.578125 0.484375,1.046875 1.09375,1.046875 0.78125,0 1.25,-0.609375 1.609375,-1.359375 0.25,-0.484375 0.625,-1.84375 0.625,-2.453125 z m 0,0"
               style="stroke:none"
               inkscape:connector-curvature="0" />
          </symbol>
          <symbol
             id="textext-ba0cc7e8-3"
             overflow="visible"
             style="overflow:visible">
            <path
               id="path5484"
               d="m 2.046875,-3.984375 0.9375,0 c 0.203125,0 0.3125,0 0.3125,-0.203125 0,-0.109375 -0.109375,-0.109375 -0.28125,-0.109375 l -0.875,0 C 2.5,-5.71875 2.546875,-5.90625 2.546875,-5.96875 c 0,-0.171875 -0.125,-0.265625 -0.296875,-0.265625 -0.03125,0 -0.3125,0 -0.390625,0.359375 l -0.390625,1.578125 -0.9375,0 c -0.203125,0 -0.296875,0 -0.296875,0.1875 0,0.125 0.078125,0.125 0.28125,0.125 l 0.875,0 C 0.671875,-1.15625 0.625,-0.984375 0.625,-0.8125 0.625,-0.265625 1,0.109375 1.546875,0.109375 2.5625,0.109375 3.125,-1.34375 3.125,-1.421875 3.125,-1.53125 3.046875,-1.53125 3.015625,-1.53125 2.921875,-1.53125 2.90625,-1.5 2.859375,-1.390625 2.4375,-0.34375 1.90625,-0.109375 1.5625,-0.109375 c -0.203125,0 -0.3125,-0.125 -0.3125,-0.453125 0,-0.25 0.03125,-0.3125 0.0625,-0.484375 z m 0,0"
               style="stroke:none"
               inkscape:connector-curvature="0" />
          </symbol>
          <symbol
             id="textext-ba0cc7e8-4"
             overflow="visible"
             style="overflow:visible">
            <path
               id="path5487"
               d=""
               style="stroke:none"
               inkscape:connector-curvature="0" />
          </symbol>
          <symbol
             id="textext-ba0cc7e8-5"
             overflow="visible"
             style="overflow:visible">
            <path
               id="path5490"
               d="m 6.84375,-3.265625 c 0.15625,0 0.34375,0 0.34375,-0.1875 C 7.1875,-3.65625 7,-3.65625 6.859375,-3.65625 l -5.96875,0 c -0.140625,0 -0.328125,0 -0.328125,0.203125 0,0.1875 0.1875,0.1875 0.328125,0.1875 z m 0.015625,1.9375 c 0.140625,0 0.328125,0 0.328125,-0.203125 0,-0.1875 -0.1875,-0.1875 -0.34375,-0.1875 l -5.953125,0 c -0.140625,0 -0.328125,0 -0.328125,0.1875 0,0.203125 0.1875,0.203125 0.328125,0.203125 z m 0,0"
               style="stroke:none"
               inkscape:connector-curvature="0" />
          </symbol>
          <symbol
             id="textext-ba0cc7e8-6"
             overflow="visible"
             style="overflow:visible">
            <path
               id="path5493"
               d="m 2.078125,-1.9375 c 0.21875,0.046875 1.03125,0.203125 1.03125,0.921875 0,0.5 -0.34375,0.90625 -1.125,0.90625 -0.84375,0 -1.203125,-0.5625 -1.390625,-1.421875 C 0.5625,-1.65625 0.5625,-1.6875 0.453125,-1.6875 c -0.125,0 -0.125,0.0625 -0.125,0.234375 l 0,1.328125 c 0,0.171875 0,0.234375 0.109375,0.234375 0.046875,0 0.0625,-0.015625 0.25,-0.203125 0.015625,-0.015625 0.015625,-0.03125 0.203125,-0.21875 0.4375,0.40625 0.890625,0.421875 1.09375,0.421875 1.140625,0 1.609375,-0.671875 1.609375,-1.390625 0,-0.515625 -0.296875,-0.828125 -0.421875,-0.9375 C 2.84375,-2.546875 2.453125,-2.625 2.03125,-2.703125 1.46875,-2.8125 0.8125,-2.9375 0.8125,-3.515625 c 0,-0.359375 0.25,-0.765625 1.109375,-0.765625 1.09375,0 1.15625,0.90625 1.171875,1.203125 0,0.09375 0.09375,0.09375 0.109375,0.09375 0.140625,0 0.140625,-0.046875 0.140625,-0.234375 l 0,-1.015625 c 0,-0.15625 0,-0.234375 -0.109375,-0.234375 -0.046875,0 -0.078125,0 -0.203125,0.125 -0.03125,0.03125 -0.125,0.125 -0.171875,0.15625 -0.375,-0.28125 -0.78125,-0.28125 -0.9375,-0.28125 -1.21875,0 -1.59375,0.671875 -1.59375,1.234375 0,0.34375 0.15625,0.625 0.421875,0.84375 0.328125,0.25 0.609375,0.3125 1.328125,0.453125 z m 0,0"
               style="stroke:none"
               inkscape:connector-curvature="0" />
          </symbol>
          <symbol
             id="textext-ba0cc7e8-7"
             overflow="visible"
             style="overflow:visible">
            <path
               id="path5496"
               d="M 1.765625,-4.40625 0.375,-4.296875 l 0,0.3125 c 0.640625,0 0.734375,0.0625 0.734375,0.546875 l 0,2.6875 c 0,0.4375 -0.109375,0.4375 -0.78125,0.4375 l 0,0.3125 C 0.640625,-0.015625 1.1875,-0.03125 1.421875,-0.03125 1.78125,-0.03125 2.125,-0.015625 2.46875,0 l 0,-0.3125 c -0.671875,0 -0.703125,-0.046875 -0.703125,-0.4375 z m 0.03125,-1.734375 c 0,-0.3125 -0.234375,-0.53125 -0.515625,-0.53125 -0.3125,0 -0.53125,0.265625 -0.53125,0.53125 0,0.265625 0.21875,0.53125 0.53125,0.53125 0.28125,0 0.515625,-0.21875 0.515625,-0.53125 z m 0,0"
               style="stroke:none"
               inkscape:connector-curvature="0" />
          </symbol>
          <symbol
             id="textext-ba0cc7e8-8"
             overflow="visible"
             style="overflow:visible">
            <path
               id="path5499"
               d="m 1.09375,-3.421875 0,2.671875 c 0,0.4375 -0.109375,0.4375 -0.78125,0.4375 l 0,0.3125 c 0.359375,-0.015625 0.859375,-0.03125 1.140625,-0.03125 0.25,0 0.765625,0.015625 1.109375,0.03125 l 0,-0.3125 c -0.671875,0 -0.78125,0 -0.78125,-0.4375 l 0,-1.84375 C 1.78125,-3.625 2.5,-4.1875 3.125,-4.1875 c 0.640625,0 0.75,0.53125 0.75,1.109375 l 0,2.328125 c 0,0.4375 -0.109375,0.4375 -0.78125,0.4375 l 0,0.3125 c 0.34375,-0.015625 0.859375,-0.03125 1.125,-0.03125 0.25,0 0.78125,0.015625 1.109375,0.03125 l 0,-0.3125 c -0.515625,0 -0.765625,0 -0.765625,-0.296875 l 0,-1.90625 c 0,-0.859375 0,-1.15625 -0.3125,-1.515625 -0.140625,-0.171875 -0.46875,-0.375 -1.046875,-0.375 C 2.46875,-4.40625 2,-3.984375 1.71875,-3.359375 l 0,-1.046875 -1.40625,0.109375 0,0.3125 c 0.703125,0 0.78125,0.0625 0.78125,0.5625 z m 0,0"
               style="stroke:none"
               inkscape:connector-curvature="0" />
          </symbol>
          <symbol
             id="textext-ba0cc7e8-9"
             overflow="visible"
             style="overflow:visible">
            <path
               id="path5502"
               d="m 3.296875,2.390625 c 0,-0.03125 0,-0.046875 -0.171875,-0.21875 C 1.890625,0.921875 1.5625,-0.96875 1.5625,-2.5 c 0,-1.734375 0.375,-3.46875 1.609375,-4.703125 0.125,-0.125 0.125,-0.140625 0.125,-0.171875 0,-0.078125 -0.03125,-0.109375 -0.09375,-0.109375 -0.109375,0 -1,0.6875 -1.59375,1.953125 -0.5,1.09375 -0.625,2.203125 -0.625,3.03125 0,0.78125 0.109375,1.984375 0.65625,3.125 C 2.25,1.84375 3.09375,2.5 3.203125,2.5 c 0.0625,0 0.09375,-0.03125 0.09375,-0.109375 z m 0,0"
               style="stroke:none"
               inkscape:connector-curvature="0" />
          </symbol>
          <symbol
             id="textext-ba0cc7e8-10"
             overflow="visible"
             style="overflow:visible">
            <path
               id="path5505"
               d="m 2.875,-2.5 c 0,-0.765625 -0.109375,-1.96875 -0.65625,-3.109375 -0.59375,-1.21875 -1.453125,-1.875 -1.546875,-1.875 -0.0625,0 -0.109375,0.046875 -0.109375,0.109375 0,0.03125 0,0.046875 0.1875,0.234375 0.984375,0.984375 1.546875,2.5625 1.546875,4.640625 0,1.71875 -0.359375,3.46875 -1.59375,4.71875 C 0.5625,2.34375 0.5625,2.359375 0.5625,2.390625 0.5625,2.453125 0.609375,2.5 0.671875,2.5 0.765625,2.5 1.671875,1.8125 2.25,0.546875 2.765625,-0.546875 2.875,-1.65625 2.875,-2.5 z m 0,0"
               style="stroke:none"
               inkscape:connector-curvature="0" />
          </symbol>
          <symbol
             id="textext-ba0cc7e8-11"
             overflow="visible"
             style="overflow:visible">
            <path
               id="path5508"
               d=""
               style="stroke:none"
               inkscape:connector-curvature="0" />
          </symbol>
          <symbol
             id="textext-ba0cc7e8-12"
             overflow="visible"
             style="overflow:visible">
            <path
               id="path5511"
               d="M 3.59375,-2.21875 C 3.59375,-2.984375 3.5,-3.546875 3.1875,-4.03125 2.96875,-4.34375 2.53125,-4.625 1.984375,-4.625 c -1.625,0 -1.625,1.90625 -1.625,2.40625 0,0.5 0,2.359375 1.625,2.359375 1.609375,0 1.609375,-1.859375 1.609375,-2.359375 z M 1.984375,-0.0625 c -0.328125,0 -0.75,-0.1875 -0.890625,-0.75 C 1,-1.21875 1,-1.796875 1,-2.3125 1,-2.828125 1,-3.359375 1.09375,-3.734375 1.25,-4.28125 1.6875,-4.4375 1.984375,-4.4375 c 0.375,0 0.734375,0.234375 0.859375,0.640625 0.109375,0.375 0.125,0.875 0.125,1.484375 0,0.515625 0,1.03125 -0.09375,1.46875 -0.140625,0.640625 -0.609375,0.78125 -0.890625,0.78125 z m 0,0"
               style="stroke:none"
               inkscape:connector-curvature="0" />
          </symbol>
        </g>
      </defs>
      <g
         id="textext-ba0cc7e8-13">
        <g
           id="g5514"
           style="fill:#000000;fill-opacity:1">
          <use
             id="use5516"
             y="134.765"
             x="223.43201"
             xlink:href="#textext-ba0cc7e8-1"
             width="400"
             height="400" />
        </g>
        <g
           id="g5518"
           style="fill:#000000;fill-opacity:1">
          <use
             id="use5520"
             y="134.765"
             x="233.99001"
             xlink:href="#textext-ba0cc7e8-5"
             width="400"
             height="400" />
        </g>
        <g
           id="g5522"
           style="fill:#000000;fill-opacity:1">
          <use
             id="use5524"
             y="134.765"
             x="244.506"
             xlink:href="#textext-ba0cc7e8-1"
             width="400"
             height="400" />
        </g>
        <g
           id="g5526"
           style="fill:#000000;fill-opacity:1">
          <use
             id="use5528"
             y="136.259"
             x="250.912"
             xlink:href="#textext-ba0cc7e8-12"
             width="400"
             height="400" />
        </g>
        <g
           id="g5530"
           style="fill:#000000;fill-opacity:1">
          <use
             id="use5532"
             y="134.765"
             x="257.04199"
             xlink:href="#textext-ba0cc7e8-6"
             width="400"
             height="400" />
          <use
             id="use5534"
             y="134.765"
             x="260.97125"
             xlink:href="#textext-ba0cc7e8-7"
             width="400"
             height="400" />
          <use
             id="use5536"
             y="134.765"
             x="263.73886"
             xlink:href="#textext-ba0cc7e8-8"
             width="400"
             height="400" />
          <use
             id="use5538"
             y="134.765"
             x="269.27408"
             xlink:href="#textext-ba0cc7e8-9"
             width="400"
             height="400" />
        </g>
        <g
           id="g5540"
           style="fill:#000000;fill-opacity:1">
          <use
             id="use5542"
             y="134.765"
             x="273.14801"
             xlink:href="#textext-ba0cc7e8-2"
             width="400"
             height="400" />
        </g>
        <g
           id="g5544"
           style="fill:#000000;fill-opacity:1">
          <use
             id="use5546"
             y="134.765"
             x="279.70837"
             xlink:href="#textext-ba0cc7e8-3"
             width="400"
             height="400" />
        </g>
        <g
           id="g5548"
           style="fill:#000000;fill-opacity:1">
          <use
             id="use5550"
             y="134.765"
             x="283.30499"
             xlink:href="#textext-ba0cc7e8-10"
             width="400"
             height="400" />
        </g>
      </g>
    </g>
  </g>
</svg>
